<svg xmlns="http://www.w3.org/2000/svg" viewBox="0 0 370 115.72" role="img" aria-labelledby="title">
  <title id="title">Aurela Tag Studio</title>
  <g transform="translate(0 8.438)scale(.78125)" fill="#111827">
    <path d="M100.33 98.88a1 1 0 0 0-1.27.63 35.94 35.94 0 0 1-68.13 0 1 1 0 1 0-1.89.65 37.93 37.93 0 0 0 71.91 0 1 1 0 0 0-.62-1.28"/>
    <path d="M54.95 91.59a1 1 0 0 0-.95 1.08 11 11 0 0 0 21.93 0 1 1 0 1 0-2-.16 9 9 0 0 1-17.95 0 1 1 0 0 0-1.03-.92M95 87.49V45.36a1 1 0 1 0-2 0v42.13a1 1 0 1 0 2 0m4-6.1V51.45a1 1 0 1 0-2 0v29.94a1 1 0 1 0 2 0m-68 0V51.45a1 1 0 1 0-2 0v29.94a1 1 0 1 0 2 0m60 14.72V39.75a1 1 0 1 0-2 0v56.36a1 1 0 1 0 2 0m-4-15.22V52a1 1 0 1 0-2 0v28.89a1 1 0 1 0 2 0M83 86V46.88a1 1 0 1 0-2 0V86a1 1 0 1 0 2 0m-4-9.68v-19.8a1 1 0 1 0-2 0v19.8a1 1 0 1 0 2 0m-4 3.55V53a1 1 0 1 0-2 0v26.9a1 1 0 1 0 2 0Zm-4 5.08V47.89a1 1 0 1 0-2 0v37.06a1 1 0 1 0 2 0M26 58.56a1 1 0 0 0-1 1v13.7a1 1 0 1 0 2 0V59.57a1 1 0 0 0-1-1.01m76 0a1 1 0 0 0-1 1v13.7a1 1 0 1 0 2 0V59.57a1 1 0 0 0-1-1.01M35 87.49V45.36a1 1 0 1 0-2 0v42.13a1 1 0 1 0 2 0m4 8.62V39.75a1 1 0 1 0-2 0v56.36a1 1 0 1 0 2 0m4-7.04V45.79a1 1 0 1 0-2 0v43.28a1 1 0 1 0 2 0m8-8.18V52a1 1 0 1 0-2 0v28.89a1 1 0 1 0 2 0m-4-1.38V53.34a1 1 0 1 0-2 0v26.17a1 1 0 1 0 2 0m7-33.64a1 1 0 0 0-1 1V86a1 1 0 1 0 2 0V46.88a1 1 0 0 0-1-1.01m5 30.45v-19.8a1 1 0 1 0-2 0v19.8a1 1 0 1 0 2 0m4 3.55V53a1 1 0 1 0-2 0v26.9a1 1 0 1 0 2 0Zm4 5.08V47.89a1 1 0 1 0-2 0v37.06a1 1 0 1 0 2 0"/>
    <path d="M64 2C28.71 2 0 30.9 0 66.42a1 1 0 0 0 1 1h3.48A12.56 12.56 0 0 0 15 79.86a3 3 0 0 0 3 2.69h2a3 3 0 0 0 3-3v-27.2a3 3 0 0 0-3-3h-2A3 3 0 0 0 15 52 12.56 12.56 0 0 0 4.48 64.43v1H2C2.54 31.46 30.15 4 64 4s61.46 27.45 62 61.4h-2v-1A12.56 12.56 0 0 0 113.45 52a3 3 0 0 0-3-2.69h-2a3 3 0 0 0-3 3v27.22a3 3 0 0 0 3 3h2a3 3 0 0 0 3-2.69A12.56 12.56 0 0 0 124 67.45h3a1 1 0 0 0 1-1C128 30.9 99.29 2 64 2M17 52.35a1 1 0 0 1 1-1h2a1 1 0 0 1 1 1v27.18a1 1 0 0 1-1 1h-2a1 1 0 0 1-1-1ZM6.48 64.43A10.57 10.57 0 0 1 15 54.06v23.76a10.57 10.57 0 0 1-8.5-10.37Zm105 15.1a1 1 0 0 1-1 1h-2a1 1 0 0 1-1-1V52.35a1 1 0 0 1 1-1h2a1 1 0 0 1 1 1ZM122 67.45a10.57 10.57 0 0 1-8.5 10.37V54.06a10.57 10.57 0 0 1 8.5 10.37Z"/>
  </g>
  <path d="m138.39 34.123 5.819-.574-2.945-11.207zM148.52.287l14.798 55.46-3.592-.216-1.652 2.012-3.88-2.083-3.376 2.945-3.376-12.572-12.213 1.293-2.442 10.058-4.814.43-3.592-2.514-4.382.934 10.273-41.882-4.885.287.575-3.592-1.724-2.514 1.796-3.16-2.874-3.09zm53.017.934.79 55.316-4.885-1.796-3.951 2.227-3.736-1.365v-3.16l-18.606 5.746-.431-3.591-2.73-.144.43-4.023-2.37-.216.934-46.983 3.592-2.298 3.736 2.37L179.626.79l-.934 42.17 10.848-3.449-.575-37.5L192.7.36l2.659 2.658 1.436-1.15zm30.388 23.132c8.836-5.747 5.316-12.572-5.03-11.71q-1.292.108-3.016.216l.574 16.307c2.515-1.58 4.957-3.16 7.472-4.813m8.261 9.699 8.908 18.965-3.017 3.161h-4.885l-2.874 3.448-8.764-18.534a93 93 0 0 1-4.598 2.442l.431 12.357-3.807-.072-2.586 2.011-2.658-2.514-3.52 1.868-1.437-43.176-3.592.36 1.58-4.383-2.37-3.017 1.22-1.868-1.508-3.16S220.79 0 227.614.071c8.118.071 17.242 1.365 20.977 10.129 4.023 9.698-.503 17.457-8.405 23.85m49.282 16.308 1.652 3.52-29.167 4.957-.43-3.376-3.233.071.503-3.592-3.449-.143 1.078-36.997h-3.592l1.724-3.592-1.796-2.3 1.078-2.73-.719-3.663L286.594.862l1.222 5.675-2.012 2.227 1.652 4.67-18.39.862-.288 9.698 16.739-2.011-1.58 4.67 2.514 2.226-1.365 5.747-16.667 2.084-.216 8.19 21.84-3.593-1.437 4.239 2.227 2.155zm34.986-2.299.287 4.813-26.078 4.454-.43-3.879h-3.736l.502-51.221 3.736.862 4.167-3.09 4.67 2.156-.288 40.517 14.943-2.155 2.155 3.233-1.437 3.017zm20.617-13.937 5.82-.574-2.946-11.207zM355.201.287 370 55.747l-3.592-.216-1.653 2.012-3.879-2.083-3.376 2.945-3.377-12.572-12.213 1.293-2.442 10.058-4.813.43-3.592-2.514-4.382.934 10.273-41.882-4.885.287.574-3.592-1.724-2.514 1.796-3.16-2.874-3.09zM142.724 80.725v4.64h-5.752v30.017h-4.64V85.365H126v-4.64zm17.775 34.608-1.74-11.938h-4.882l-1.595 11.938h-4.64l5.22-34.56h6.236l6.042 34.56zm-5.993-16.53h3.577l-1.837-12.568zm24.687 16.917h-1.063a6.066 6.066 0 0 1-6.09-6.09V86.332c0-3.383 2.706-6.138 6.09-6.138h1.063c3.384 0 6.09 2.755 6.09 6.138v2.465h-4.737v-2.465c0-.822-.58-1.402-1.353-1.402h-1.063c-.725 0-1.402.58-1.402 1.402v23.298c0 .725.677 1.402 1.402 1.402h1.063c.773 0 1.353-.677 1.353-1.402V97.063h-2.706v-4.689h7.443v17.256a6.065 6.065 0 0 1-6.09 6.09m37.05-.097c-3.674 0-6.623-2.996-6.623-6.622v-5.268h4.689V109c0 1.064.87 1.934 1.933 1.934s1.885-.87 1.885-1.934v-4.591l-8.507-11.746v-5.993c0-3.674 2.949-6.67 6.622-6.67 3.625 0 6.574 2.996 6.574 6.67v5.22h-4.689v-5.22c0-1.112-.821-1.934-1.885-1.934s-1.933.822-1.933 1.934v4.398l8.507 11.746V109c0 3.626-2.949 6.622-6.574 6.622m30.343-34.898v4.64h-5.752v30.017h-4.64V85.365h-6.332v-4.64zm15.648 34.705c-3.915 0-7.105-3.19-7.105-7.105V80.87h4.592v27.455c0 1.401 1.112 2.562 2.513 2.562s2.514-1.16 2.514-2.562V80.87h4.592v27.455c0 3.915-3.19 7.105-7.106 7.105m21.69-.048h-6.041V80.919h6.042c4.108 0 7.395 3.335 7.395 7.443v19.576c0 1.982-.773 3.867-2.175 5.269s-3.238 2.175-5.22 2.175m-1.45-29.823v25.183h1.45c.725 0 1.45-.29 1.982-.822s.821-1.209.821-1.982V88.362a2.805 2.805 0 0 0-2.803-2.803zm21.98-4.834v34.415h-4.592V80.725zm15.069 34.657c-3.625 0-6.525-2.949-6.525-6.526V87.154c0-3.577 2.9-6.477 6.525-6.477 3.577 0 6.477 2.9 6.477 6.477v21.702c0 3.577-2.9 6.526-6.477 6.526m0-30.113c-1.064 0-1.885.87-1.885 1.885v21.702c0 1.064.821 1.886 1.885 1.886a1.887 1.887 0 0 0 1.885-1.886V87.154c0-1.015-.87-1.885-1.885-1.885" fill="#111827"/>
</svg>
