<svg xmlns="http://www.w3.org/2000/svg" viewBox="0 0 128 128">
  <defs>
    <linearGradient id="g" x1="-1" y1="1" x2="-1" y2="0">
      <stop stop-color="#fff7ae" offset="0"></stop>
      <stop stop-color="#c5913f" offset=".43"></stop>
      <stop stop-color="#fff7ae" offset=".44"></stop>
      <stop stop-color="#9a6831" offset="1"></stop>
    </linearGradient>
  </defs>
  <rect width="128" height="128" rx="24" fill="#0d0e14"></rect>
  <g transform="translate(5.573 7.299)scale(1.1686)" fill="url(#g)">
    <path d="M7 47a1.5 1.5 0 0 0-1.5 1.5v3a1.5 1.5 0 1 0 3 0v-3A1.5 1.5 0 0 0 7 47"></path>
    <path d="M12.733 41.603a1.5 1.5 0 0 0-1.5 1.5v13.795a1.5 1.5 0 1 0 3 0V43.103a1.5 1.5 0 0 0-1.5-1.5"></path>
    <path d="M18.467 44.667a1.5 1.5 0 0 0-1.5 1.5v7.667a1.5 1.5 0 1 0 3 0v-7.667a1.5 1.5 0 0 0-1.5-1.5"></path>
    <path d="M24.2 36.375a1.5 1.5 0 0 0-1.5 1.5v24.25a1.5 1.5 0 1 0 3 0v-24.25a1.5 1.5 0 0 0-1.5-1.5"></path>
    <path d="M29.933 28.833a1.5 1.5 0 0 0-1.5 1.5v39.333a1.5 1.5 0 1 0 3 0V30.333a1.5 1.5 0 0 0-1.5-1.5"></path>
    <path d="M35.667 37.333a1.5 1.5 0 0 0-1.5 1.5v22.333a1.5 1.5 0 1 0 3 0V38.833a1.5 1.5 0 0 0-1.5-1.5"></path>
    <path d="M41.534 29.835c-.87-.024-1.505.662-1.51 1.49l-.249 37.331a1.5 1.5 0 0 0 1.49 1.51h.01a1.5 1.5 0 0 0 1.5-1.49l.249-37.331a1.5 1.5 0 0 0-1.49-1.51"></path>
    <path d="M47.133 20.849a1.5 1.5 0 0 0-1.5 1.5v55.303a1.5 1.5 0 1 0 3 0V22.349a1.5 1.5 0 0 0-1.5-1.5"></path>
    <path d="M52.867 27.25a1.5 1.5 0 0 0-1.5 1.5v42.5a1.5 1.5 0 1 0 3 0v-42.5a1.5 1.5 0 0 0-1.5-1.5"></path>
    <path d="M58.6 37.333a1.5 1.5 0 0 0-1.5 1.5v22.333a1.5 1.5 0 1 0 3 0V38.833a1.5 1.5 0 0 0-1.5-1.5"></path>
    <path d="M64.333 31a1.5 1.5 0 0 0-1.5 1.5v35a1.5 1.5 0 1 0 3 0v-35a1.5 1.5 0 0 0-1.5-1.5"></path>
    <path d="M70.067 39.632a1.5 1.5 0 0 0-1.5 1.5v17.735a1.5 1.5 0 1 0 3 0V41.132a1.5 1.5 0 0 0-1.5-1.5"></path>
    <path d="M75.8 43.5a1.5 1.5 0 0 0-1.5 1.5v10a1.5 1.5 0 1 0 3 0V45a1.5 1.5 0 0 0-1.5-1.5"></path>
    <path d="M81.533 41.735a1.5 1.5 0 0 0-1.5 1.5v13.53a1.5 1.5 0 1 0 3 0v-13.53a1.5 1.5 0 0 0-1.5-1.5"></path>
    <path d="M87.267 45.99a1.5 1.5 0 0 0-1.5 1.5v5.021a1.5 1.5 0 1 0 3 0V47.49a1.5 1.5 0 0 0-1.5-1.5"></path>
    <path d="M93 47.417a1.5 1.5 0 0 0-1.5 1.5v2.167a1.5 1.5 0 1 0 3 0v-2.167a1.5 1.5 0 0 0-1.5-1.5"></path>
  </g>
</svg>