<svg xmlns="http://www.w3.org/2000/svg" viewBox="-6 -6 112 112" role="img" aria-labelledby="title">
  <title id="title">Aurela Tag Studio</title>
  <rect x="-6" y="-6" width="112" height="112" rx="24" fill="#2557d6"/>
  <g transform="translate(0 8.438)scale(.78125)" fill="#ffffff">
    <path d="M100.33 98.88a1 1 0 0 0-1.27.63 35.94 35.94 0 0 1-68.13 0 1 1 0 1 0-1.89.65 37.93 37.93 0 0 0 71.91 0 1 1 0 0 0-.62-1.28"/>
    <path d="M54.95 91.59a1 1 0 0 0-.95 1.08 11 11 0 0 0 21.93 0 1 1 0 1 0-2-.16 9 9 0 0 1-17.95 0 1 1 0 0 0-1.03-.92M95 87.49V45.36a1 1 0 1 0-2 0v42.13a1 1 0 1 0 2 0m4-6.1V51.45a1 1 0 1 0-2 0v29.94a1 1 0 1 0 2 0m-68 0V51.45a1 1 0 1 0-2 0v29.94a1 1 0 1 0 2 0m60 14.72V39.75a1 1 0 1 0-2 0v56.36a1 1 0 1 0 2 0m-4-15.22V52a1 1 0 1 0-2 0v28.89a1 1 0 1 0 2 0M83 86V46.88a1 1 0 1 0-2 0V86a1 1 0 1 0 2 0m-4-9.68v-19.8a1 1 0 1 0-2 0v19.8a1 1 0 1 0 2 0m-4 3.55V53a1 1 0 1 0-2 0v26.9a1 1 0 1 0 2 0Zm-4 5.08V47.89a1 1 0 1 0-2 0v37.06a1 1 0 1 0 2 0M26 58.56a1 1 0 0 0-1 1v13.7a1 1 0 1 0 2 0V59.57a1 1 0 0 0-1-1.01m76 0a1 1 0 0 0-1 1v13.7a1 1 0 1 0 2 0V59.57a1 1 0 0 0-1-1.01M35 87.49V45.36a1 1 0 1 0-2 0v42.13a1 1 0 1 0 2 0m4 8.62V39.75a1 1 0 1 0-2 0v56.36a1 1 0 1 0 2 0m4-7.04V45.79a1 1 0 1 0-2 0v43.28a1 1 0 1 0 2 0m8-8.18V52a1 1 0 1 0-2 0v28.89a1 1 0 1 0 2 0m-4-1.38V53.34a1 1 0 1 0-2 0v26.17a1 1 0 1 0 2 0m7-33.64a1 1 0 0 0-1 1V86a1 1 0 1 0 2 0V46.88a1 1 0 0 0-1-1.01m5 30.45v-19.8a1 1 0 1 0-2 0v19.8a1 1 0 1 0 2 0m4 3.55V53a1 1 0 1 0-2 0v26.9a1 1 0 1 0 2 0Zm4 5.08V47.89a1 1 0 1 0-2 0v37.06a1 1 0 1 0 2 0"/>
    <path d="M64 2C28.71 2 0 30.9 0 66.42a1 1 0 0 0 1 1h3.48A12.56 12.56 0 0 0 15 79.86a3 3 0 0 0 3 2.69h2a3 3 0 0 0 3-3v-27.2a3 3 0 0 0-3-3h-2A3 3 0 0 0 15 52 12.56 12.56 0 0 0 4.48 64.43v1H2C2.54 31.46 30.15 4 64 4s61.46 27.45 62 61.4h-2v-1A12.56 12.56 0 0 0 113.45 52a3 3 0 0 0-3-2.69h-2a3 3 0 0 0-3 3v27.22a3 3 0 0 0 3 3h2a3 3 0 0 0 3-2.69A12.56 12.56 0 0 0 124 67.45h3a1 1 0 0 0 1-1C128 30.9 99.29 2 64 2M17 52.35a1 1 0 0 1 1-1h2a1 1 0 0 1 1 1v27.18a1 1 0 0 1-1 1h-2a1 1 0 0 1-1-1ZM6.48 64.43A10.57 10.57 0 0 1 15 54.06v23.76a10.57 10.57 0 0 1-8.5-10.37Zm105 15.1a1 1 0 0 1-1 1h-2a1 1 0 0 1-1-1V52.35a1 1 0 0 1 1-1h2a1 1 0 0 1 1 1ZM122 67.45a10.57 10.57 0 0 1-8.5 10.37V54.06a10.57 10.57 0 0 1 8.5 10.37Z"/>
  </g>
</svg>
